<svg width="31" height="18" viewBox="0 0 31 18" fill="none" xmlns="http://www.w3.org/2000/svg">
<path d="M3.07437 0.889282C3.59241 0.370239 4.36365 0.370239 4.88169 0.889282L8.3572 4.33811L8.51753 4.4975C10.5783 3.47003 12.8889 2.95689 15.4619 2.95195C15.4745 2.95195 15.487 2.95159 15.4996 2.95159H15.4999C15.513 2.95159 15.525 2.95195 15.5379 2.95195C18.1108 2.95689 20.4213 3.47003 22.4819 4.4975L22.6426 4.33811L26.1181 0.889282C26.6365 0.370239 27.4074 0.370239 27.9255 0.889282C28.4439 1.40543 28.4439 2.17152 27.9255 2.6873L24.5635 6.03522C25.6468 6.75537 26.6292 7.63659 27.4834 8.64454C29.5284 11.0581 30.8329 14.1992 31.0123 17.6026C31.014 17.638 31.0175 17.673 31.0191 17.7084C31.0301 17.9402 31.0352 18.1731 31.0352 18.407H-0.0354424C-0.0354424 18.1732 -0.0298729 17.9403 -0.0193367 17.7084C-0.017643 17.673 -0.0141315 17.638 -0.0120716 17.6026C0.166904 14.1992 1.47169 11.0579 3.51684 8.64478C4.37068 7.63684 5.35335 6.75561 6.43666 6.03546L3.07437 2.68754C2.55585 2.17152 2.55585 1.40555 3.07437 0.889282ZM21.9766 13.9022C23.0487 13.9022 23.9179 13.0369 23.9179 11.9694C23.9179 10.9019 23.0488 10.0366 21.9766 10.0366C20.9046 10.0366 20.0354 10.9019 20.0354 11.9694C20.0354 13.0369 20.9046 13.9022 21.9766 13.9022ZM9.02322 13.9022C10.0953 13.9022 10.9645 13.0369 10.9645 11.9694C10.9645 10.9019 10.0954 10.0366 9.02322 10.0366C7.95118 10.0366 7.08197 10.9019 7.08197 11.9694C7.08197 13.0369 7.95106 13.9022 9.02322 13.9022Z" fill="#F4F7F5"/>
</svg>
