<svg width="127" height="56" viewBox="0 0 127 56" fill="none" xmlns="http://www.w3.org/2000/svg">
<path d="M4.5932 16.0847C4.58993 15.8981 4.66386 15.7179 4.79891 15.5833C4.8718 15.5117 4.95987 15.4559 5.05715 15.4195C5.15442 15.3832 5.25866 15.3671 5.36293 15.3725L10.6865 15.3725C10.8823 15.3734 11.071 15.4424 11.2174 15.5668C11.2965 15.6304 11.3602 15.7096 11.4044 15.799C11.4486 15.8884 11.4722 15.9858 11.4736 16.0847L11.4736 35.1372H19.8948C20.0914 35.1339 20.2817 35.2035 20.4258 35.3315C20.5006 35.3998 20.5591 35.4829 20.5973 35.5748C20.6356 35.6668 20.6526 35.7656 20.6474 35.8645V40.9817C20.647 41.1661 20.577 41.3442 20.4503 41.4831C20.3815 41.5595 20.2963 41.6208 20.2004 41.6627C20.1045 41.7045 20.0002 41.726 19.8948 41.7255L5.34567 41.7255C5.24409 41.7401 5.14032 41.7319 5.04265 41.7014C4.94498 41.6709 4.85612 41.6191 4.78306 41.5499C4.71 41.4808 4.65478 41.3963 4.62182 41.3031C4.58886 41.21 4.57906 41.1108 4.59319 41.0133L4.5932 16.0847Z" fill="#344549"/>
<path d="M43.1271 41.4514C42.9924 41.5629 42.8307 41.6406 42.6567 41.6773C42.5019 41.7079 42.3442 41.724 42.1862 41.7255H39.3019C39.1192 41.7299 38.9379 41.6936 38.7724 41.6194C38.6277 41.5544 38.4991 41.4604 38.3954 41.3439C38.2905 41.2217 38.2043 41.0858 38.1393 40.9403C38.0702 40.7885 38.0129 40.632 37.9681 40.472L37.6084 38.8921C37.3879 39.2876 37.0989 39.6443 36.7537 39.9472C36.3095 40.3494 35.8117 40.6936 35.2732 40.9707C34.6314 41.3038 34.2343 41.5636 33.5292 41.7448C32.7144 41.9546 31.8736 42.0574 31.0299 42.0506C29.8368 42.0723 28.6547 41.8285 27.5767 41.3384C26.5907 40.8786 25.7227 40.2164 25.0343 39.399C24.326 38.5465 23.7947 37.5721 23.4689 36.5284C23.109 35.394 22.9299 34.214 22.9379 33.0284V21.0113C22.9142 20.6783 23.0164 20.3484 23.2257 20.0815C23.3418 19.9689 23.4825 19.8822 23.6377 19.8277C23.7929 19.7731 23.9588 19.7521 24.1235 19.7661H28.5377C28.8916 19.7311 29.2472 19.8138 29.5449 20.0002C29.6522 20.1273 29.7318 20.2738 29.7787 20.4309C29.8257 20.5881 29.8391 20.7526 29.8183 20.9149V32.8782C29.8178 33.3324 29.9158 33.7817 30.106 34.1978C30.2884 34.606 30.5463 34.9793 30.8672 35.2998C31.1865 35.6175 31.5671 35.8729 31.988 36.0518C32.4155 36.2356 32.8791 36.3296 33.3477 36.3273C34.4944 36.3273 35.7306 35.3819 36.3019 34.465C36.587 33.9937 36.7295 33.4557 36.7134 32.9113V20.9631C36.7142 20.7744 36.7518 20.5875 36.8242 20.4121C36.8881 20.2427 37.0045 20.0961 37.158 19.992C37.2883 19.9132 37.4298 19.8528 37.5782 19.8129C37.7266 19.7792 37.8788 19.763 38.0314 19.7647H42.1934C42.385 19.7472 42.5784 19.7684 42.761 19.8267C42.9437 19.8851 43.1115 19.9794 43.2538 20.1036C43.4795 20.3546 43.596 20.679 43.579 21.0099V40.5299C43.5812 40.7271 43.5318 40.9218 43.4351 41.096C43.3421 41.2634 43.2027 41.4031 43.0322 41.4996L43.1271 41.4514Z" fill="#344549"/>
<path d="M60.618 34.9947C60.7596 34.8931 60.9218 34.8209 61.0943 34.7826C61.2096 34.7581 61.327 34.7436 61.445 34.7393C61.6382 34.7373 61.8292 34.7783 62.0029 34.859C62.2191 34.9833 62.3987 35.1582 62.5246 35.367L64.5384 38.2288C64.602 38.3267 64.6591 38.4284 64.7093 38.5333C64.7548 38.6177 64.782 38.7099 64.7894 38.8046C64.7941 38.9218 64.7734 39.0387 64.7286 39.1479C64.6839 39.2571 64.6161 39.3564 64.5294 39.4396C64.3569 39.6025 64.1668 39.7476 63.9624 39.8725C62.9632 40.5236 61.8777 41.0448 60.7344 41.4224C59.5391 41.8137 58.2831 42.0089 57.0195 41.9997C55.9663 42.0027 54.9173 41.8717 53.9003 41.61C52.9211 41.3593 51.9806 40.9866 51.1032 40.5017C50.24 40.0203 49.4427 39.4386 48.7295 38.7699C48.0157 38.1068 47.3988 37.3549 46.8954 36.5345C46.3859 35.6968 45.9902 34.8006 45.7176 33.8676C45.4335 32.8942 45.2915 31.8879 45.2958 30.8774C45.292 29.8641 45.434 28.8551 45.7176 27.8786C45.9881 26.9449 46.384 26.0484 46.8954 25.2117C47.3999 24.3916 48.0167 23.6393 48.7295 22.9748C49.4416 22.3086 50.2392 21.7311 51.1032 21.256C51.9824 20.7763 52.9224 20.4062 53.9003 20.1549C54.9173 19.8933 55.9663 19.7622 57.0195 19.7653C58.2481 19.7536 59.4714 19.919 60.6482 20.2559C61.7606 20.5855 62.8132 21.0766 63.7689 21.7121L63.7144 21.6615C63.9579 21.7923 64.1717 21.9679 64.3434 22.1782C64.505 22.3924 64.5874 22.6518 64.5777 22.9156C64.571 23.14 64.4959 23.3577 64.3615 23.542L62.7604 26.1006C62.6562 26.333 62.4869 26.5333 62.271 26.6797C62.0552 26.8261 61.8013 26.9129 61.5372 26.9304C61.4017 26.9256 61.2679 26.8997 61.1411 26.854C60.9555 26.7893 60.7801 26.701 60.6195 26.5913C60.0872 26.262 59.5169 25.9923 58.92 25.7875C58.3 25.5761 57.6461 25.4701 56.9878 25.4743C56.2671 25.4676 55.554 25.6155 54.9013 25.9073C54.2784 26.1858 53.724 26.5866 53.2744 27.0834C52.8137 27.5941 52.455 28.181 52.2161 28.8152C51.963 29.4773 51.835 30.177 51.8381 30.8818C51.8322 31.5952 51.9602 32.3039 52.2161 32.9743C52.4513 33.5962 52.8106 34.1687 53.2744 34.6599C53.7292 35.1388 54.2832 35.5226 54.9013 35.787C55.5571 36.068 56.269 36.2099 56.9878 36.2026C57.6461 36.2068 58.2991 36.0917 58.9124 35.8635C59.5127 35.6346 60.0847 35.3433 60.618 34.9947Z" fill="#344549"/>
<path d="M66.5218 20.9603C66.5175 20.776 66.559 20.5933 66.6427 20.4272C66.7175 20.282 66.8257 20.1548 66.9593 20.0553C67.0923 19.9574 67.243 19.8837 67.4039 19.8377C67.5617 19.79 67.7261 19.7654 67.8916 19.7647H70.4815C70.6068 19.759 70.7321 19.7775 70.8497 19.8192C70.9674 19.8608 71.0751 19.9247 71.1664 20.0071C71.3474 20.1856 71.4936 20.3937 71.598 20.6215C71.7251 20.8889 71.831 21.1652 71.9146 21.4479C72.0041 21.7452 72.1126 22.0368 72.2397 22.3212C72.5822 21.9649 72.9218 21.615 73.2584 21.2716C73.5884 20.9313 73.9522 20.6227 74.3448 20.3501C74.737 20.0777 75.1658 19.8572 75.6196 19.6944C76.127 19.5202 76.6633 19.4353 77.2023 19.4438C77.7559 19.4389 78.3088 19.4822 78.8541 19.5732C79.3255 19.6565 79.7872 19.7838 80.2325 19.9534C80.6834 20.1286 81.1168 20.3426 81.5274 20.5925C81.9552 20.8515 82.4205 21.1531 82.9231 21.4975C83.1251 21.5772 83.3003 21.7082 83.4299 21.8765C83.5596 22.0448 83.6386 22.2438 83.6584 22.4521C83.6404 22.7471 83.5411 23.0322 83.3706 23.2785L81.8138 25.7855C81.6939 25.9757 81.5251 26.1334 81.3237 26.2438C81.1223 26.3542 80.8948 26.4136 80.6627 26.4163C80.3961 26.4077 80.1343 26.3473 79.8929 26.2386C79.4574 25.8225 78.9508 25.4806 78.3951 25.2276C77.8478 24.9988 77.2555 24.8855 76.6585 24.8956C76.2597 24.8884 75.8627 24.9485 75.4858 25.0733C75.1531 25.1902 74.8433 25.3596 74.5692 25.5747C74.2822 25.8038 74.0239 26.0641 73.7995 26.3502C73.5597 26.6523 73.6303 26.9866 73.3905 27.353V40.4807C73.4166 40.8182 73.3035 41.152 73.0754 41.4105C72.9308 41.5278 72.763 41.6161 72.5821 41.6703C72.4013 41.7244 72.2109 41.7434 72.0222 41.7259H67.8542C67.6761 41.7524 67.494 41.7389 67.3222 41.6866C67.1504 41.6342 66.9936 41.5445 66.8642 41.4243C66.7348 41.3042 66.6363 41.1569 66.5764 40.9941C66.5165 40.8314 66.4968 40.6575 66.519 40.4862L66.5218 20.9603Z" fill="#344549"/>
<ellipse cx="99.7652" cy="29.647" rx="3.44019" ry="3.29411" fill="#049B41"/>
<ellipse cx="99.7652" cy="13.451" rx="5.44695" ry="5.21569" fill="white"/>
<path fill-rule="evenodd" clip-rule="evenodd" d="M93.4526 6.76096C95.2122 5.17676 97.3432 4.39215 99.7006 4.39215C102.058 4.39215 104.349 5.20875 106.079 6.76096C107.855 8.35508 108.939 10.7032 108.939 13.1742C108.939 17.3695 104.808 22.0222 101.455 25.7972C100.858 26.4704 100.285 27.1157 99.7642 27.7255C99.043 26.7959 98.1726 25.7969 97.259 24.7481C94.1725 21.2052 90.5914 17.0944 90.5914 13.1742C90.5914 10.8405 91.693 8.34516 93.4526 6.76096ZM102.718 10.6447C102.718 10.688 102.705 10.7303 102.681 10.767C102.649 10.8124 102.612 10.8548 102.572 10.8936L101.718 11.7116C101.695 11.7367 101.666 11.7569 101.634 11.7711C101.602 11.7853 101.568 11.7931 101.532 11.7941C101.483 11.7938 101.435 11.7783 101.395 11.75C101.347 11.7175 101.302 11.6824 101.258 11.6447L101.211 11.6021C101.139 11.5423 101.062 11.4811 100.972 11.4171C100.883 11.3534 100.789 11.2959 100.691 11.245C100.589 11.1931 100.482 11.1498 100.372 11.1156C100.262 11.0811 100.147 11.0619 100.031 11.0587C99.9179 11.0563 99.8048 11.0635 99.6929 11.08C99.5962 11.0943 99.5023 11.1226 99.4144 11.1639C99.3366 11.2002 99.2695 11.2544 99.2193 11.3218C99.1677 11.3927 99.1407 11.4773 99.1419 11.5637C99.1375 11.652 99.1619 11.7395 99.2119 11.814C99.2711 11.8944 99.3472 11.9623 99.4352 12.0132C99.5533 12.0843 99.6786 12.1439 99.8091 12.191C99.958 12.2469 100.132 12.3081 100.33 12.3745C100.712 12.5025 101.063 12.6358 101.383 12.7742C101.681 12.8989 101.96 13.0616 102.211 13.2579C102.438 13.4363 102.621 13.6596 102.748 13.9123C102.88 14.1988 102.941 14.5112 102.923 14.8241C102.92 15.1276 102.851 15.4273 102.722 15.7047C102.598 15.9706 102.423 16.2119 102.205 16.4159C101.98 16.6237 101.719 16.7939 101.434 16.9195C101.127 17.0554 100.801 17.1478 100.466 17.1941L100.448 17.9267C100.448 18.0761 100.354 18.15 100.181 18.1458L99.1582 18.1244C99.126 18.128 99.0932 18.1245 99.0626 18.1141C99.032 18.1037 99.0043 18.0867 98.9817 18.0644C98.9591 18.0421 98.9421 18.0151 98.9322 17.9856C98.9222 17.956 98.9196 17.9247 98.9245 17.894L98.9438 17.1457C98.6584 17.081 98.3816 16.9856 98.1187 16.8612C97.857 16.7356 97.6077 16.5875 97.374 16.4188C97.2452 16.3287 97.1246 16.2283 97.0136 16.1186C96.9842 16.0893 96.9496 16.0581 96.9132 16.0252C96.8128 15.9346 96.6984 15.8313 96.6403 15.7194C96.6011 15.6441 96.6005 15.5826 96.6493 15.5103C96.6716 15.4773 96.7008 15.449 96.7351 15.4273L97.6957 14.6022C97.749 14.5611 97.8138 14.5359 97.8819 14.5297C97.9186 14.5314 97.9541 14.5427 97.9846 14.5624C98.0299 14.5908 98.0728 14.6227 98.1127 14.6577C98.1738 14.706 98.2512 14.7729 98.345 14.854C98.4469 14.9424 98.5549 15.0242 98.6683 15.0987C98.8377 15.2127 99.0201 15.3081 99.2119 15.3832C99.3928 15.453 99.5856 15.4906 99.7807 15.4941C99.9384 15.5013 100.096 15.4845 100.248 15.4443C100.358 15.416 100.46 15.365 100.546 15.295C100.618 15.2348 100.673 15.1585 100.706 15.0731C100.739 14.9864 100.757 14.8951 100.759 14.8028C100.76 14.6964 100.717 14.5941 100.639 14.5183C100.549 14.4279 100.445 14.3507 100.332 14.2892C100.21 14.2215 100.082 14.163 99.9506 14.1143C99.818 14.0659 99.7033 14.0246 99.605 13.9919C99.2157 13.8567 98.8378 13.6931 98.4747 13.5026C98.1801 13.3503 97.9098 13.1587 97.6719 12.9336C97.4679 12.7384 97.3069 12.5062 97.1983 12.2507C97.0912 11.9895 97.0405 11.7103 97.0493 11.4299C97.0534 11.1811 97.1075 10.9352 97.2087 10.7059C97.3077 10.4875 97.4492 10.2891 97.6257 10.1212C97.8148 9.9442 98.0344 9.79981 98.275 9.69444C98.5468 9.57283 98.8351 9.48808 99.1314 9.44264L99.1493 8.73137C99.1499 8.67306 99.1727 8.61695 99.2133 8.57347C99.2368 8.55072 99.2653 8.53328 99.2968 8.52245C99.3282 8.51162 99.3618 8.50767 99.3951 8.51088L100.417 8.53222C100.479 8.53647 100.539 8.55936 100.587 8.59765C100.614 8.61611 100.637 8.64088 100.652 8.6697C100.667 8.69851 100.674 8.73047 100.673 8.76267L100.656 9.44976C100.859 9.48761 101.058 9.5404 101.252 9.60767C101.451 9.67788 101.643 9.76402 101.826 9.86515C101.948 9.93627 102.062 10.0074 102.171 10.0842C102.27 10.1526 102.366 10.2257 102.457 10.3033C102.529 10.363 102.594 10.4298 102.651 10.5024C102.686 10.543 102.71 10.5922 102.718 10.6447Z" fill="#EF5D50"/>
<path d="M90.8767 18.4012C88.7208 19.9217 87.0284 21.9739 85.9926 24.3484C84.7367 27.2274 84.5164 30.4194 85.3658 33.4295C86.2151 36.4395 88.0867 39.0993 90.6902 40.9963C93.2937 42.8933 96.4836 43.9215 99.7652 43.9215C103.047 43.9215 106.237 42.8933 108.84 40.9963C111.444 39.0993 113.315 36.4395 114.165 33.4295C115.014 30.4195 114.794 27.2274 113.538 24.3484C112.517 22.0071 110.857 19.9792 108.744 18.4654L105.382 23.1556C106.541 24.0434 107.454 25.1965 108.029 26.5153C108.782 28.2427 108.915 30.1579 108.405 31.9639C107.895 33.7699 106.772 35.3658 105.21 36.504C103.648 37.6422 101.734 38.2592 99.7652 38.2592C97.7963 38.2592 95.8823 37.6422 94.3202 36.504C92.7581 35.3658 91.6352 33.7699 91.1255 31.9639C90.6159 30.1579 90.7481 28.2427 91.5016 26.5153C92.0887 25.1694 93.0275 23.9961 94.2201 23.1013L90.8767 18.4012Z" fill="#049B41"/>
</svg>
