<svg width="19" height="20" viewBox="0 0 19 20" fill="none" xmlns="http://www.w3.org/2000/svg">
<g clip-path="url(#clip0)">
<path d="M13.0619 0C12.049 0.0737496 10.865 0.756246 10.1751 1.64499C9.54574 2.45124 9.02799 3.64873 9.22987 4.81247C10.3366 4.84872 11.4802 4.14998 12.1428 3.24623C12.7627 2.40499 13.2317 1.21499 13.0619 0Z" fill="black"/>
<path d="M17.065 6.70989C16.0924 5.42615 14.7256 4.68115 13.4348 4.68115C11.7307 4.68115 11.0099 5.5399 9.826 5.5399C8.60525 5.5399 7.67782 4.68365 6.20414 4.68365C4.75659 4.68365 3.21522 5.6149 2.23792 7.20739C0.863988 9.44987 1.09911 13.6661 3.32566 17.2573C4.12247 18.5423 5.18646 19.9873 6.5782 19.9998C7.81676 20.0123 8.16588 19.1636 9.84381 19.1548C11.5217 19.1448 11.84 20.0111 13.0762 19.9973C14.4691 19.9861 15.5913 18.3848 16.3881 17.0998C16.9593 16.1786 17.1718 15.7148 17.6148 14.6748C14.3931 13.3836 13.8765 8.56113 17.065 6.70989Z" fill="black"/>
</g>
<defs>
<clipPath id="clip0">
<rect width="19" height="20" fill="white"/>
</clipPath>
</defs>
</svg>
