<svg width="78" height="99" viewBox="0 0 78 99" fill="none" xmlns="http://www.w3.org/2000/svg">
<path d="M38.725 0C28.7034 0 19.6442 3.32651 12.1636 10.0431C4.68307 16.7596 0 27.339 0 37.2333C0 58.7742 25.5719 81.6719 38.9955 98.9268C53.6128 81.8438 78 58.1923 78 37.2333C78 26.757 73.3899 16.8017 65.8391 10.0431C58.4868 3.46214 48.7466 0 38.725 0Z" fill="#E5FC61"/>
<path d="M36.1468 53.2682H41.8541V49.4634H44.7077C46.2773 49.4634 47.5614 48.1792 47.5614 46.6097V38.0487C47.5614 36.4792 46.2773 35.1951 44.7077 35.1951H36.1468V32.3414H47.5614V26.6341H41.8541V22.8292H36.1468V26.6341H33.2931C31.7236 26.6341 30.4395 27.9182 30.4395 29.4878V38.0487C30.4395 39.6182 31.7236 40.9024 33.2931 40.9024H41.8541V43.7561H30.4395V49.4634H36.1468V53.2682Z" fill="#455D62"/>
</svg>
